<svg width="96" height="96" viewBox="0 0 96 96" fill="none" xmlns="http://www.w3.org/2000/svg">
  <!-- Hat -->
  <path d="M32 40C32 29.9543 40.9543 21 51 21H55C65.0457 21 74 29.9543 74 40V45H32V40Z" fill="#16a34a"/>
  <ellipse cx="53" cy="40" rx="24" ry="4" fill="#16a34a"/>
  
  <!-- Face -->
  <circle cx="53" cy="52" r="14" fill="#F9D5A7"/>
  
  <!-- Eyes -->
  <circle cx="48" cy="48" r="2" fill="#1F2937"/>
  <circle cx="58" cy="48" r="2" fill="#1F2937"/>
  
  <!-- Smile -->
  <path d="M48 58C50 60 56 60 58 58" stroke="#1F2937" stroke-width="1.5" stroke-linecap="round"/>
  
  <!-- Hair -->
  <path d="M40 46C40 46 43 40 48 40C53 40 58 46 58 46" stroke="#5C4033" stroke-width="2"/>
  
  <!-- Beard -->
  <path d="M46 58C46 62 53 66 60 58" stroke="#5C4033" stroke-width="1.5" stroke-linecap="round"/>
  
  <!-- Body/Overall -->
  <path d="M38 66C38 58 45 56 53 56C61 56 68 58 68 66L63 76H43L38 66Z" fill="#3B82F6"/>
  <path d="M48 56V66" stroke="#1F2937" stroke-width="2"/>
  <path d="M58 56V66" stroke="#1F2937" stroke-width="2"/>
  
  <!-- Hands -->
  <circle cx="35" cy="66" r="5" fill="#F9D5A7"/>
  <circle cx="71" cy="66" r="5" fill="#F9D5A7"/>
</svg>
