<svg width="96" height="96" viewBox="0 0 96 96" fill="none" xmlns="http://www.w3.org/2000/svg">
  <!-- Bee body -->
  <ellipse cx="48" cy="52" rx="16" ry="24" fill="#FCD34D"/>
  
  <!-- Bee stripes -->
  <rect x="32" y="44" width="32" height="4" fill="#1F2937"/>
  <rect x="32" y="52" width="32" height="4" fill="#1F2937"/>
  <rect x="32" y="60" width="32" height="4" fill="#1F2937"/>
  
  <!-- Bee head -->
  <circle cx="48" cy="28" r="12" fill="#FCD34D"/>
  
  <!-- Eyes -->
  <circle cx="44" cy="26" r="2" fill="#1F2937"/>
  <circle cx="52" cy="26" r="2" fill="#1F2937"/>
  
  <!-- Smile -->
  <path d="M 44 32 Q 48 35 52 32" stroke="#1F2937" stroke-width="2" fill="none"/>
  
  <!-- Antennae -->
  <line x1="44" y1="18" x2="42" y2="12" stroke="#1F2937" stroke-width="2"/>
  <line x1="52" y1="18" x2="54" y2="12" stroke="#1F2937" stroke-width="2"/>
  <circle cx="42" cy="12" r="2" fill="#1F2937"/>
  <circle cx="54" cy="12" r="2" fill="#1F2937"/>
  
  <!-- Wings -->
  <ellipse cx="38" cy="38" rx="8" ry="12" fill="#E5E7EB" opacity="0.8" transform="rotate(-20 38 38)"/>
  <ellipse cx="58" cy="38" rx="8" ry="12" fill="#E5E7EB" opacity="0.8" transform="rotate(20 58 38)"/>
  
  <!-- Wing details -->
  <ellipse cx="38" cy="38" rx="6" ry="10" fill="none" stroke="#9CA3AF" transform="rotate(-20 38 38)"/>
  <ellipse cx="58" cy="38" rx="6" ry="10" fill="none" stroke="#9CA3AF" transform="rotate(20 58 38)"/>
</svg>
